<mxfile host="Electron" modified="2024-06-30T15:54:45.937Z" agent="Mozilla/5.0 (Windows NT 10.0; Win64; x64) AppleWebKit/537.36 (KHTML, like Gecko) draw.io/21.1.2 Chrome/106.0.5249.199 Electron/21.4.3 Safari/537.36" etag="40fC-_WKIw60zZHkcQGc" version="21.1.2" type="device">
  <diagram name="第 1 页" id="nhbapwRkPywgr6HCi6KI">
    <mxGraphModel dx="1036" dy="614" grid="1" gridSize="10" guides="1" tooltips="1" connect="1" arrows="1" fold="1" page="1" pageScale="1" pageWidth="827" pageHeight="1169" math="0" shadow="0">
      <root>
        <mxCell id="0" />
        <mxCell id="1" parent="0" />
        <mxCell id="eOhIT-qZxXjhVNoF55Jw-1" value="" style="group" vertex="1" connectable="0" parent="1">
          <mxGeometry x="160" y="275" width="480" height="620" as="geometry" />
        </mxCell>
        <mxCell id="UQVET6SePkr9T4LVMLtG-161" value="" style="rounded=0;whiteSpace=wrap;html=1;" parent="eOhIT-qZxXjhVNoF55Jw-1" vertex="1">
          <mxGeometry y="505" width="480" height="115" as="geometry" />
        </mxCell>
        <mxCell id="UQVET6SePkr9T4LVMLtG-146" value="保守策略（不违反已有条件）" style="text;html=1;strokeColor=none;fillColor=none;align=center;verticalAlign=middle;whiteSpace=wrap;rounded=0;" parent="eOhIT-qZxXjhVNoF55Jw-1" vertex="1">
          <mxGeometry x="15" y="522.5" width="100" height="30" as="geometry" />
        </mxCell>
        <mxCell id="UQVET6SePkr9T4LVMLtG-147" value="" style="rounded=0;whiteSpace=wrap;html=1;" parent="eOhIT-qZxXjhVNoF55Jw-1" vertex="1">
          <mxGeometry x="125" y="520" width="340" height="35" as="geometry" />
        </mxCell>
        <mxCell id="UQVET6SePkr9T4LVMLtG-148" value="最大熵（可能违反已有条件）" style="text;html=1;strokeColor=none;fillColor=none;align=center;verticalAlign=middle;whiteSpace=wrap;rounded=0;" parent="eOhIT-qZxXjhVNoF55Jw-1" vertex="1">
          <mxGeometry x="15" y="572.5" width="100" height="30" as="geometry" />
        </mxCell>
        <mxCell id="UQVET6SePkr9T4LVMLtG-149" value="" style="rounded=0;whiteSpace=wrap;html=1;" parent="eOhIT-qZxXjhVNoF55Jw-1" vertex="1">
          <mxGeometry x="125" y="570" width="340" height="35" as="geometry" />
        </mxCell>
        <mxCell id="UQVET6SePkr9T4LVMLtG-152" value="" style="group" parent="eOhIT-qZxXjhVNoF55Jw-1" vertex="1" connectable="0">
          <mxGeometry width="479" height="230" as="geometry" />
        </mxCell>
        <mxCell id="UQVET6SePkr9T4LVMLtG-1" value="" style="rounded=0;whiteSpace=wrap;html=1;" parent="UQVET6SePkr9T4LVMLtG-152" vertex="1">
          <mxGeometry width="479" height="230" as="geometry" />
        </mxCell>
        <mxCell id="UQVET6SePkr9T4LVMLtG-2" value="正确" style="text;html=1;strokeColor=none;fillColor=none;align=center;verticalAlign=middle;whiteSpace=wrap;rounded=0;" parent="UQVET6SePkr9T4LVMLtG-152" vertex="1">
          <mxGeometry x="50" width="60" height="30" as="geometry" />
        </mxCell>
        <mxCell id="UQVET6SePkr9T4LVMLtG-3" value="" style="rounded=0;whiteSpace=wrap;html=1;" parent="UQVET6SePkr9T4LVMLtG-152" vertex="1">
          <mxGeometry x="45" y="30" width="25" height="30" as="geometry" />
        </mxCell>
        <mxCell id="UQVET6SePkr9T4LVMLtG-4" value="" style="rounded=0;whiteSpace=wrap;html=1;" parent="UQVET6SePkr9T4LVMLtG-152" vertex="1">
          <mxGeometry x="69" y="30" width="25" height="30" as="geometry" />
        </mxCell>
        <mxCell id="UQVET6SePkr9T4LVMLtG-5" value="" style="rounded=0;whiteSpace=wrap;html=1;" parent="UQVET6SePkr9T4LVMLtG-152" vertex="1">
          <mxGeometry x="94" y="30" width="25" height="30" as="geometry" />
        </mxCell>
        <mxCell id="UQVET6SePkr9T4LVMLtG-6" value="" style="rounded=0;whiteSpace=wrap;html=1;" parent="UQVET6SePkr9T4LVMLtG-152" vertex="1">
          <mxGeometry x="119" y="30" width="25" height="30" as="geometry" />
        </mxCell>
        <mxCell id="UQVET6SePkr9T4LVMLtG-7" value="汉字" style="text;html=1;strokeColor=none;fillColor=none;align=center;verticalAlign=middle;whiteSpace=wrap;rounded=0;" parent="UQVET6SePkr9T4LVMLtG-152" vertex="1">
          <mxGeometry y="30" width="50" height="30" as="geometry" />
        </mxCell>
        <mxCell id="UQVET6SePkr9T4LVMLtG-8" value="" style="rounded=0;whiteSpace=wrap;html=1;" parent="UQVET6SePkr9T4LVMLtG-152" vertex="1">
          <mxGeometry x="69" y="70" width="25" height="30" as="geometry" />
        </mxCell>
        <mxCell id="UQVET6SePkr9T4LVMLtG-9" value="" style="rounded=0;whiteSpace=wrap;html=1;" parent="UQVET6SePkr9T4LVMLtG-152" vertex="1">
          <mxGeometry x="94" y="70" width="26" height="30" as="geometry" />
        </mxCell>
        <mxCell id="UQVET6SePkr9T4LVMLtG-10" value="声母" style="text;html=1;strokeColor=none;fillColor=none;align=center;verticalAlign=middle;whiteSpace=wrap;rounded=0;" parent="UQVET6SePkr9T4LVMLtG-152" vertex="1">
          <mxGeometry y="70" width="50" height="30" as="geometry" />
        </mxCell>
        <mxCell id="UQVET6SePkr9T4LVMLtG-12" value="" style="rounded=0;whiteSpace=wrap;html=1;" parent="UQVET6SePkr9T4LVMLtG-152" vertex="1">
          <mxGeometry x="44" y="70" width="25" height="30" as="geometry" />
        </mxCell>
        <mxCell id="UQVET6SePkr9T4LVMLtG-13" value="" style="rounded=0;whiteSpace=wrap;html=1;" parent="UQVET6SePkr9T4LVMLtG-152" vertex="1">
          <mxGeometry x="120" y="70" width="25" height="30" as="geometry" />
        </mxCell>
        <mxCell id="UQVET6SePkr9T4LVMLtG-14" value="" style="rounded=0;whiteSpace=wrap;html=1;" parent="UQVET6SePkr9T4LVMLtG-152" vertex="1">
          <mxGeometry x="68" y="110" width="25" height="30" as="geometry" />
        </mxCell>
        <mxCell id="UQVET6SePkr9T4LVMLtG-15" value="" style="rounded=0;whiteSpace=wrap;html=1;" parent="UQVET6SePkr9T4LVMLtG-152" vertex="1">
          <mxGeometry x="93" y="110" width="26" height="30" as="geometry" />
        </mxCell>
        <mxCell id="UQVET6SePkr9T4LVMLtG-16" value="韵母" style="text;html=1;strokeColor=none;fillColor=none;align=center;verticalAlign=middle;whiteSpace=wrap;rounded=0;" parent="UQVET6SePkr9T4LVMLtG-152" vertex="1">
          <mxGeometry x="1" y="110" width="48" height="30" as="geometry" />
        </mxCell>
        <mxCell id="UQVET6SePkr9T4LVMLtG-17" value="" style="rounded=0;whiteSpace=wrap;html=1;" parent="UQVET6SePkr9T4LVMLtG-152" vertex="1">
          <mxGeometry x="43" y="110" width="25" height="30" as="geometry" />
        </mxCell>
        <mxCell id="UQVET6SePkr9T4LVMLtG-18" value="" style="rounded=0;whiteSpace=wrap;html=1;" parent="UQVET6SePkr9T4LVMLtG-152" vertex="1">
          <mxGeometry x="119" y="110" width="25" height="30" as="geometry" />
        </mxCell>
        <mxCell id="UQVET6SePkr9T4LVMLtG-76" value="" style="rounded=0;whiteSpace=wrap;html=1;" parent="UQVET6SePkr9T4LVMLtG-152" vertex="1">
          <mxGeometry x="68" y="150" width="25" height="30" as="geometry" />
        </mxCell>
        <mxCell id="UQVET6SePkr9T4LVMLtG-77" value="" style="rounded=0;whiteSpace=wrap;html=1;" parent="UQVET6SePkr9T4LVMLtG-152" vertex="1">
          <mxGeometry x="93" y="150" width="26" height="30" as="geometry" />
        </mxCell>
        <mxCell id="UQVET6SePkr9T4LVMLtG-78" value="声调" style="text;html=1;strokeColor=none;fillColor=none;align=center;verticalAlign=middle;whiteSpace=wrap;rounded=0;" parent="UQVET6SePkr9T4LVMLtG-152" vertex="1">
          <mxGeometry x="1" y="150" width="48" height="30" as="geometry" />
        </mxCell>
        <mxCell id="UQVET6SePkr9T4LVMLtG-79" value="" style="rounded=0;whiteSpace=wrap;html=1;" parent="UQVET6SePkr9T4LVMLtG-152" vertex="1">
          <mxGeometry x="43" y="150" width="25" height="30" as="geometry" />
        </mxCell>
        <mxCell id="UQVET6SePkr9T4LVMLtG-80" value="" style="rounded=0;whiteSpace=wrap;html=1;" parent="UQVET6SePkr9T4LVMLtG-152" vertex="1">
          <mxGeometry x="119" y="150" width="25" height="30" as="geometry" />
        </mxCell>
        <mxCell id="UQVET6SePkr9T4LVMLtG-89" value="存在但位置错误" style="text;html=1;strokeColor=none;fillColor=none;align=center;verticalAlign=middle;whiteSpace=wrap;rounded=0;" parent="UQVET6SePkr9T4LVMLtG-152" vertex="1">
          <mxGeometry x="179" width="120" height="30" as="geometry" />
        </mxCell>
        <mxCell id="UQVET6SePkr9T4LVMLtG-90" value="" style="rounded=0;whiteSpace=wrap;html=1;" parent="UQVET6SePkr9T4LVMLtG-152" vertex="1">
          <mxGeometry x="204" y="30" width="25" height="30" as="geometry" />
        </mxCell>
        <mxCell id="UQVET6SePkr9T4LVMLtG-91" value="" style="rounded=0;whiteSpace=wrap;html=1;" parent="UQVET6SePkr9T4LVMLtG-152" vertex="1">
          <mxGeometry x="228" y="30" width="25" height="30" as="geometry" />
        </mxCell>
        <mxCell id="UQVET6SePkr9T4LVMLtG-92" value="" style="rounded=0;whiteSpace=wrap;html=1;" parent="UQVET6SePkr9T4LVMLtG-152" vertex="1">
          <mxGeometry x="253" y="30" width="25" height="30" as="geometry" />
        </mxCell>
        <mxCell id="UQVET6SePkr9T4LVMLtG-93" value="" style="rounded=0;whiteSpace=wrap;html=1;" parent="UQVET6SePkr9T4LVMLtG-152" vertex="1">
          <mxGeometry x="278" y="30" width="25" height="30" as="geometry" />
        </mxCell>
        <mxCell id="UQVET6SePkr9T4LVMLtG-94" value="汉字" style="text;html=1;strokeColor=none;fillColor=none;align=center;verticalAlign=middle;whiteSpace=wrap;rounded=0;" parent="UQVET6SePkr9T4LVMLtG-152" vertex="1">
          <mxGeometry x="159" y="30" width="50" height="30" as="geometry" />
        </mxCell>
        <mxCell id="UQVET6SePkr9T4LVMLtG-95" value="" style="rounded=0;whiteSpace=wrap;html=1;" parent="UQVET6SePkr9T4LVMLtG-152" vertex="1">
          <mxGeometry x="228" y="70" width="25" height="30" as="geometry" />
        </mxCell>
        <mxCell id="UQVET6SePkr9T4LVMLtG-96" value="" style="rounded=0;whiteSpace=wrap;html=1;" parent="UQVET6SePkr9T4LVMLtG-152" vertex="1">
          <mxGeometry x="253" y="70" width="26" height="30" as="geometry" />
        </mxCell>
        <mxCell id="UQVET6SePkr9T4LVMLtG-97" value="声母" style="text;html=1;strokeColor=none;fillColor=none;align=center;verticalAlign=middle;whiteSpace=wrap;rounded=0;" parent="UQVET6SePkr9T4LVMLtG-152" vertex="1">
          <mxGeometry x="159" y="70" width="50" height="30" as="geometry" />
        </mxCell>
        <mxCell id="UQVET6SePkr9T4LVMLtG-98" value="" style="rounded=0;whiteSpace=wrap;html=1;" parent="UQVET6SePkr9T4LVMLtG-152" vertex="1">
          <mxGeometry x="203" y="70" width="25" height="30" as="geometry" />
        </mxCell>
        <mxCell id="UQVET6SePkr9T4LVMLtG-99" value="" style="rounded=0;whiteSpace=wrap;html=1;" parent="UQVET6SePkr9T4LVMLtG-152" vertex="1">
          <mxGeometry x="279" y="70" width="25" height="30" as="geometry" />
        </mxCell>
        <mxCell id="UQVET6SePkr9T4LVMLtG-100" value="" style="rounded=0;whiteSpace=wrap;html=1;" parent="UQVET6SePkr9T4LVMLtG-152" vertex="1">
          <mxGeometry x="227" y="110" width="25" height="30" as="geometry" />
        </mxCell>
        <mxCell id="UQVET6SePkr9T4LVMLtG-101" value="" style="rounded=0;whiteSpace=wrap;html=1;" parent="UQVET6SePkr9T4LVMLtG-152" vertex="1">
          <mxGeometry x="252" y="110" width="26" height="30" as="geometry" />
        </mxCell>
        <mxCell id="UQVET6SePkr9T4LVMLtG-102" value="韵母" style="text;html=1;strokeColor=none;fillColor=none;align=center;verticalAlign=middle;whiteSpace=wrap;rounded=0;" parent="UQVET6SePkr9T4LVMLtG-152" vertex="1">
          <mxGeometry x="160" y="110" width="48" height="30" as="geometry" />
        </mxCell>
        <mxCell id="UQVET6SePkr9T4LVMLtG-103" value="" style="rounded=0;whiteSpace=wrap;html=1;" parent="UQVET6SePkr9T4LVMLtG-152" vertex="1">
          <mxGeometry x="202" y="110" width="25" height="30" as="geometry" />
        </mxCell>
        <mxCell id="UQVET6SePkr9T4LVMLtG-104" value="" style="rounded=0;whiteSpace=wrap;html=1;" parent="UQVET6SePkr9T4LVMLtG-152" vertex="1">
          <mxGeometry x="278" y="110" width="25" height="30" as="geometry" />
        </mxCell>
        <mxCell id="UQVET6SePkr9T4LVMLtG-105" value="" style="rounded=0;whiteSpace=wrap;html=1;" parent="UQVET6SePkr9T4LVMLtG-152" vertex="1">
          <mxGeometry x="227" y="150" width="25" height="30" as="geometry" />
        </mxCell>
        <mxCell id="UQVET6SePkr9T4LVMLtG-106" value="" style="rounded=0;whiteSpace=wrap;html=1;" parent="UQVET6SePkr9T4LVMLtG-152" vertex="1">
          <mxGeometry x="252" y="150" width="26" height="30" as="geometry" />
        </mxCell>
        <mxCell id="UQVET6SePkr9T4LVMLtG-107" value="声调" style="text;html=1;strokeColor=none;fillColor=none;align=center;verticalAlign=middle;whiteSpace=wrap;rounded=0;" parent="UQVET6SePkr9T4LVMLtG-152" vertex="1">
          <mxGeometry x="160" y="150" width="48" height="30" as="geometry" />
        </mxCell>
        <mxCell id="UQVET6SePkr9T4LVMLtG-108" value="" style="rounded=0;whiteSpace=wrap;html=1;" parent="UQVET6SePkr9T4LVMLtG-152" vertex="1">
          <mxGeometry x="202" y="150" width="25" height="30" as="geometry" />
        </mxCell>
        <mxCell id="UQVET6SePkr9T4LVMLtG-109" value="" style="rounded=0;whiteSpace=wrap;html=1;" parent="UQVET6SePkr9T4LVMLtG-152" vertex="1">
          <mxGeometry x="278" y="150" width="25" height="30" as="geometry" />
        </mxCell>
        <mxCell id="UQVET6SePkr9T4LVMLtG-112" value="不存在" style="text;html=1;strokeColor=none;fillColor=none;align=center;verticalAlign=middle;whiteSpace=wrap;rounded=0;" parent="UQVET6SePkr9T4LVMLtG-152" vertex="1">
          <mxGeometry x="369" width="60" height="30" as="geometry" />
        </mxCell>
        <mxCell id="UQVET6SePkr9T4LVMLtG-116" value="" style="rounded=0;whiteSpace=wrap;html=1;" parent="UQVET6SePkr9T4LVMLtG-152" vertex="1">
          <mxGeometry x="359" y="30" width="104" height="30" as="geometry" />
        </mxCell>
        <mxCell id="UQVET6SePkr9T4LVMLtG-117" value="汉字" style="text;html=1;strokeColor=none;fillColor=none;align=center;verticalAlign=middle;whiteSpace=wrap;rounded=0;" parent="UQVET6SePkr9T4LVMLtG-152" vertex="1">
          <mxGeometry x="319" y="30" width="50" height="30" as="geometry" />
        </mxCell>
        <mxCell id="UQVET6SePkr9T4LVMLtG-120" value="声母" style="text;html=1;strokeColor=none;fillColor=none;align=center;verticalAlign=middle;whiteSpace=wrap;rounded=0;" parent="UQVET6SePkr9T4LVMLtG-152" vertex="1">
          <mxGeometry x="319" y="70" width="50" height="30" as="geometry" />
        </mxCell>
        <mxCell id="UQVET6SePkr9T4LVMLtG-125" value="韵母" style="text;html=1;strokeColor=none;fillColor=none;align=center;verticalAlign=middle;whiteSpace=wrap;rounded=0;" parent="UQVET6SePkr9T4LVMLtG-152" vertex="1">
          <mxGeometry x="320" y="110" width="48" height="30" as="geometry" />
        </mxCell>
        <mxCell id="UQVET6SePkr9T4LVMLtG-130" value="声调" style="text;html=1;strokeColor=none;fillColor=none;align=center;verticalAlign=middle;whiteSpace=wrap;rounded=0;" parent="UQVET6SePkr9T4LVMLtG-152" vertex="1">
          <mxGeometry x="320" y="150" width="48" height="30" as="geometry" />
        </mxCell>
        <mxCell id="UQVET6SePkr9T4LVMLtG-133" value="" style="rounded=0;whiteSpace=wrap;html=1;" parent="UQVET6SePkr9T4LVMLtG-152" vertex="1">
          <mxGeometry x="359" y="70" width="104" height="30" as="geometry" />
        </mxCell>
        <mxCell id="UQVET6SePkr9T4LVMLtG-134" value="" style="rounded=0;whiteSpace=wrap;html=1;" parent="UQVET6SePkr9T4LVMLtG-152" vertex="1">
          <mxGeometry x="359" y="110" width="104" height="30" as="geometry" />
        </mxCell>
        <mxCell id="UQVET6SePkr9T4LVMLtG-135" value="" style="rounded=0;whiteSpace=wrap;html=1;" parent="UQVET6SePkr9T4LVMLtG-152" vertex="1">
          <mxGeometry x="359" y="150" width="104" height="30" as="geometry" />
        </mxCell>
        <mxCell id="UQVET6SePkr9T4LVMLtG-137" value="确定" style="rounded=0;whiteSpace=wrap;html=1;" parent="UQVET6SePkr9T4LVMLtG-152" vertex="1">
          <mxGeometry x="210.5" y="200" width="60" height="20" as="geometry" />
        </mxCell>
        <mxCell id="UQVET6SePkr9T4LVMLtG-160" value="" style="group" parent="eOhIT-qZxXjhVNoF55Jw-1" vertex="1" connectable="0">
          <mxGeometry y="230" width="480" height="275" as="geometry" />
        </mxCell>
        <mxCell id="UQVET6SePkr9T4LVMLtG-75" value="" style="rounded=0;whiteSpace=wrap;html=1;" parent="UQVET6SePkr9T4LVMLtG-160" vertex="1">
          <mxGeometry width="480" height="275" as="geometry" />
        </mxCell>
        <mxCell id="UQVET6SePkr9T4LVMLtG-138" value="" style="rounded=0;whiteSpace=wrap;html=1;" parent="UQVET6SePkr9T4LVMLtG-160" vertex="1">
          <mxGeometry x="80" y="45" width="330" height="35" as="geometry" />
        </mxCell>
        <mxCell id="UQVET6SePkr9T4LVMLtG-139" value="最高频率" style="text;html=1;strokeColor=none;fillColor=none;align=center;verticalAlign=middle;whiteSpace=wrap;rounded=0;" parent="UQVET6SePkr9T4LVMLtG-160" vertex="1">
          <mxGeometry x="160" y="10" width="60" height="30" as="geometry" />
        </mxCell>
        <mxCell id="UQVET6SePkr9T4LVMLtG-140" value="汉字" style="text;html=1;strokeColor=none;fillColor=none;align=center;verticalAlign=middle;whiteSpace=wrap;rounded=0;" parent="UQVET6SePkr9T4LVMLtG-160" vertex="1">
          <mxGeometry x="15" y="50" width="50" height="30" as="geometry" />
        </mxCell>
        <mxCell id="UQVET6SePkr9T4LVMLtG-141" value="声母" style="text;html=1;strokeColor=none;fillColor=none;align=center;verticalAlign=middle;whiteSpace=wrap;rounded=0;" parent="UQVET6SePkr9T4LVMLtG-160" vertex="1">
          <mxGeometry x="15" y="95" width="50" height="30" as="geometry" />
        </mxCell>
        <mxCell id="UQVET6SePkr9T4LVMLtG-142" value="韵母" style="text;html=1;strokeColor=none;fillColor=none;align=center;verticalAlign=middle;whiteSpace=wrap;rounded=0;" parent="UQVET6SePkr9T4LVMLtG-160" vertex="1">
          <mxGeometry x="17" y="142.5" width="48" height="30" as="geometry" />
        </mxCell>
        <mxCell id="UQVET6SePkr9T4LVMLtG-144" value="" style="rounded=0;whiteSpace=wrap;html=1;" parent="UQVET6SePkr9T4LVMLtG-160" vertex="1">
          <mxGeometry x="80" y="90" width="330" height="35" as="geometry" />
        </mxCell>
        <mxCell id="UQVET6SePkr9T4LVMLtG-145" value="" style="rounded=0;whiteSpace=wrap;html=1;" parent="UQVET6SePkr9T4LVMLtG-160" vertex="1">
          <mxGeometry x="80" y="140" width="330" height="35" as="geometry" />
        </mxCell>
        <mxCell id="UQVET6SePkr9T4LVMLtG-150" value="声调" style="text;html=1;strokeColor=none;fillColor=none;align=center;verticalAlign=middle;whiteSpace=wrap;rounded=0;" parent="UQVET6SePkr9T4LVMLtG-160" vertex="1">
          <mxGeometry x="17" y="192.5" width="48" height="30" as="geometry" />
        </mxCell>
        <mxCell id="UQVET6SePkr9T4LVMLtG-151" value="" style="rounded=0;whiteSpace=wrap;html=1;" parent="UQVET6SePkr9T4LVMLtG-160" vertex="1">
          <mxGeometry x="80" y="190" width="330" height="35" as="geometry" />
        </mxCell>
        <mxCell id="UQVET6SePkr9T4LVMLtG-153" value="权重" style="text;html=1;strokeColor=none;fillColor=none;align=center;verticalAlign=middle;whiteSpace=wrap;rounded=0;" parent="UQVET6SePkr9T4LVMLtG-160" vertex="1">
          <mxGeometry x="410" y="10" width="60" height="30" as="geometry" />
        </mxCell>
        <mxCell id="UQVET6SePkr9T4LVMLtG-154" value="" style="rounded=0;whiteSpace=wrap;html=1;" parent="UQVET6SePkr9T4LVMLtG-160" vertex="1">
          <mxGeometry x="420" y="45" width="40" height="35" as="geometry" />
        </mxCell>
        <mxCell id="UQVET6SePkr9T4LVMLtG-156" value="" style="rounded=0;whiteSpace=wrap;html=1;" parent="UQVET6SePkr9T4LVMLtG-160" vertex="1">
          <mxGeometry x="420" y="90" width="40" height="35" as="geometry" />
        </mxCell>
        <mxCell id="UQVET6SePkr9T4LVMLtG-157" value="" style="rounded=0;whiteSpace=wrap;html=1;" parent="UQVET6SePkr9T4LVMLtG-160" vertex="1">
          <mxGeometry x="420" y="140" width="40" height="35" as="geometry" />
        </mxCell>
        <mxCell id="UQVET6SePkr9T4LVMLtG-158" value="" style="rounded=0;whiteSpace=wrap;html=1;" parent="UQVET6SePkr9T4LVMLtG-160" vertex="1">
          <mxGeometry x="420" y="190" width="40" height="35" as="geometry" />
        </mxCell>
        <mxCell id="UQVET6SePkr9T4LVMLtG-159" value="确定" style="rounded=0;whiteSpace=wrap;html=1;" parent="UQVET6SePkr9T4LVMLtG-160" vertex="1">
          <mxGeometry x="210" y="245" width="60" height="20" as="geometry" />
        </mxCell>
      </root>
    </mxGraphModel>
  </diagram>
</mxfile>
